PathFileType  4	(X/Y/Z) C:\Users\antoi\Documents\MyRepositories\mobilecap\ResultsAnalysis
DataRate	CameraRate	NumFrames	NumMarkers	Units	OrigDataRate	OrigDataStartFrame	OrigNumFrames
100.0	100.0	4	51	mm	100.0	1	271
Frame#	Time	r_knee			r_shank_antsup			r_ankle			r_calc			r_5meta			r_toe			L_knee			L_shank_antsup			L_ankle			L_calc			L_5meta			L_toe			r_sh2			r_sh3			r_sh4			L_sh2			L_sh3			r_thigh1			r_thigh2			r_thigh3			r_thigh4			r_thigh5			L_thigh1			L_thigh2			L_thigh3			L_thigh4			r.ASIS			r.PSIS			L.ASIS			L.PSIS			C7			R_Shoulder			L_Shoulder			R_Sternum			L_Sternum			R_humerus			R_elbow_med			R_elbow_lat			R_forearm			R_wrist_radius			R_wrist_ulna			L_humerus			L_elbow_med			L_elbow_lat			L_forearm			L_wrist_radius			L_wrist_ulna			R_HJC			L_HJC			R_HJC_reg			L_HJC_reg			
		X1	Y1	Z1	X2	Y2	Z2	X3	Y3	Z3	X4	Y4	Z4	X5	Y5	Z5	X6	Y6	Z6	X7	Y7	Z7	X8	Y8	Z8	X9	Y9	Z9	X10	Y10	Z10	X11	Y11	Z11	X12	Y12	Z12	X13	Y13	Z13	X14	Y14	Z14	X15	Y15	Z15	X16	Y16	Z16	X17	Y17	Z17	X18	Y18	Z18	X19	Y19	Z19	X20	Y20	Z20	X21	Y21	Z21	X22	Y22	Z22	X23	Y23	Z23	X24	Y24	Z24	X25	Y25	Z25	X26	Y26	Z26	X27	Y27	Z27	X28	Y28	Z28	X29	Y29	Z29	X30	Y30	Z30	X31	Y31	Z31	X32	Y32	Z32	X33	Y33	Z33	X34	Y34	Z34	X35	Y35	Z35	X36	Y36	Z36	X37	Y37	Z37	X38	Y38	Z38	X39	Y39	Z39	X40	Y40	Z40	X41	Y41	Z41	X42	Y42	Z42	X43	Y43	Z43	X44	Y44	Z44	X45	Y45	Z45	X46	Y46	Z46	X47	Y47	Z47	X48	Y48	Z48	X49	Y49	Z49	X50	Y50	Z50	X51	Y51	Z51	

1	0.00000000	-1184.38476	781.79493	-434.21919	-1155.74910	722.71062	-434.44527	-1205.82333	392.82369	-436.00319	-1261.23793	362.02044	-474.03264	-1096.19007	350.53194	-410.85299	-1059.67324	368.34259	-466.45344	-1176.93193	779.45677	-711.52849	-1142.94425	696.93587	-699.55812	-1205.07031	401.03359	-713.76843	-1263.62597	359.33148	-670.26720	-1104.75293	352.34364	-740.53564	-1054.73291	368.25320	-686.74916	-1170.34445	611.45799	-420.36233	-1225.55601	737.60338	-406.50770	-1248.18003	620.41238	-399.47106	-1218.75271	718.86960	-746.39729	-1230.69323	594.08521	-749.45110	-1117.33919	1030.17124	-390.89248	-1120.60639	917.85858	-410.16541	-1231.81341	917.72418	-420.53411	-1230.57310	1030.25337	-395.98051	-1183.68391	895.80198	-403.88014	-1118.37632	1056.50173	-766.45160	-1116.89774	918.90284	-737.36171	-1229.99483	1050.81161	-767.37911	-1231.15654	921.03200	-720.70277	-1070.65972	1233.84444	-467.51949	-1280.89712	1269.61316	-539.52753	-1071.72734	1237.95037	-688.04694	-1280.62146	1271.26802	-622.61353	-1159.93761	1710.44607	-569.39803	-1102.43524	1670.27974	-427.02098	-1115.25013	1674.99046	-713.34189	-1043.38010	1635.51172	-550.23960	-1045.42916	1632.65869	-589.54260	-1081.09725	1552.73811	-371.95448	-1187.65947	1355.97314	-357.16500	-1136.59900	1361.45339	-313.79469	-1070.79198	1294.32764	-331.08271	-1019.47743	1163.88379	-362.89990	-1035.90113	1152.21596	-331.95071	-1116.47687	1574.31461	-786.74565	-1196.32738	1361.64582	-799.79495	-1155.07524	1381.41535	-848.06780	-1081.82035	1300.36512	-837.77602	-1027.74094	1189.02979	-806.90398	-1046.85369	1175.81856	-837.50057	-1156.17023	1148.83791	-475.19683	-1155.99596	1154.89959	-682.61564	-1143.95130	1168.05487	-499.27201	-1143.46842	1170.95377	-644.81739	
2	0.01000000	-1184.48812	781.86164	-433.88394	-1155.61346	722.75308	-434.25209	-1205.68282	392.98090	-435.85401	-1261.29529	361.97616	-474.10695	-1096.25982	350.57831	-410.86216	-1059.70665	368.38765	-466.46005	-1176.65421	779.51427	-711.67619	-1142.53013	696.87177	-699.46969	-1205.07291	400.98161	-713.81166	-1263.80008	359.29608	-670.35698	-1104.75822	352.32622	-740.54567	-1054.70464	368.33418	-686.82754	-1170.24091	611.36562	-420.17309	-1225.36356	737.24685	-406.56844	-1248.20175	620.27089	-399.61153	-1218.38838	718.78195	-746.29326	-1230.25947	594.19827	-749.63646	-1118.26307	1030.01361	-390.76578	-1121.12525	917.82338	-409.91512	-1232.33061	917.69647	-420.68020	-1231.28187	1030.23566	-396.11739	-1184.19185	895.79603	-403.59980	-1118.74009	1056.59389	-766.18359	-1116.97872	918.88887	-737.34273	-1230.26548	1050.77762	-767.22551	-1231.21902	920.93699	-720.67282	-1071.17849	1233.64218	-467.18331	-1281.18518	1270.15939	-539.37255	-1072.00074	1237.83495	-687.80981	-1280.20315	1271.51745	-622.16205	-1157.96002	1710.50407	-569.24962	-1100.56626	1670.33441	-426.72273	-1113.06802	1674.97984	-712.80205	-1041.65994	1635.23580	-550.02129	-1043.67880	1632.35206	-589.22009	-1079.37884	1552.55810	-371.81213	-1186.77782	1356.32012	-356.62813	-1135.80622	1361.62795	-313.45242	-1070.07749	1294.37894	-330.53323	-1019.38125	1163.75547	-362.72454	-1035.79860	1152.13870	-331.76177	-1113.89302	1574.54567	-786.72879	-1194.18939	1361.91198	-800.22262	-1152.49039	1382.08750	-849.22365	-1079.40556	1300.93241	-838.00268	-1025.26522	1189.64784	-806.81757	-1043.96622	1176.70087	-838.52384	-1156.72276	1148.88641	-474.90027	-1156.37677	1154.97284	-682.31810	-1145.23265	1168.45284	-499.33916	-1143.50411	1170.84063	-644.94867	
3	0.02000000	-1184.59886	781.89609	-433.63430	-1155.41560	722.74135	-434.08585	-1205.67175	393.03789	-435.79833	-1261.30102	361.96587	-474.11648	-1096.29848	350.58492	-410.80630	-1059.72544	368.42183	-466.43785	-1176.35786	779.50034	-711.70980	-1142.13796	696.74407	-699.37528	-1205.07397	400.93469	-713.83957	-1263.84079	359.25295	-670.37213	-1104.76976	352.31201	-740.54883	-1054.70400	368.36607	-686.86156	-1170.09687	611.28640	-420.05858	-1225.22441	737.03791	-406.50442	-1247.97330	620.36298	-399.35068	-1218.04366	718.72707	-746.12370	-1229.78599	594.25007	-749.78973	-1119.13576	1030.07569	-390.42330	-1121.69705	917.93922	-409.48372	-1232.87176	917.57353	-420.79011	-1232.10402	1030.19284	-396.20224	-1184.80376	895.77354	-403.39387	-1119.09181	1056.51981	-765.64878	-1117.05100	918.89714	-737.34536	-1230.52561	1050.76766	-767.10872	-1231.29706	920.80902	-720.63218	-1071.67211	1233.43391	-466.84852	-1281.48325	1270.72293	-539.28615	-1072.19840	1237.73486	-687.44292	-1280.21477	1271.93483	-621.94175	-1155.87548	1710.62766	-569.21693	-1098.58861	1670.37693	-426.54324	-1110.73150	1674.92939	-712.46279	-1039.88730	1634.95562	-549.83236	-1041.89692	1632.00996	-588.92502	-1077.75339	1552.48550	-371.62038	-1186.23516	1356.83053	-355.88461	-1134.96295	1361.83132	-312.99766	-1069.44531	1294.34566	-330.05105	-1019.21331	1163.56358	-362.25324	-1035.68345	1152.07050	-331.05211	-1111.24939	1574.73068	-786.69264	-1192.01847	1362.22116	-800.85568	-1150.00210	1382.61432	-849.78426	-1077.00169	1301.43539	-838.32107	-1022.65799	1190.26791	-807.29395	-1041.40632	1177.25698	-838.90699	-1157.42767	1148.96460	-474.65463	-1156.81173	1155.10825	-682.07010	-1146.10297	1168.74268	-499.13458	-1143.86926	1170.87743	-644.72320	
4	0.03000000	-1184.68022	781.87848	-433.47110	-1155.19985	722.67541	-433.87753	-1205.79313	392.95588	-435.77511	-1261.31453	361.93533	-474.07884	-1096.30894	350.56605	-410.73043	-1059.75274	368.45860	-466.39774	-1176.02251	779.38341	-711.58324	-1141.78769	696.61462	-699.28300	-1205.07621	400.90129	-713.85316	-1263.80755	359.23156	-670.35107	-1104.78550	352.30368	-740.54318	-1054.71955	368.36056	-686.85276	-1169.95028	611.22121	-419.97692	-1225.09616	737.01626	-406.36714	-1247.70691	620.49409	-399.01458	-1217.65564	718.73824	-745.95122	-1229.31917	594.27025	-749.95664	-1119.83865	1030.25865	-389.97124	-1122.23344	918.03583	-409.11554	-1233.38778	917.41301	-420.84359	-1232.94515	1030.07772	-396.27999	-1185.39159	895.78761	-403.20777	-1119.39397	1056.33916	-765.02510	-1117.10119	918.92957	-737.33076	-1230.81255	1050.64624	-766.70493	-1231.37166	920.65391	-720.57979	-1072.10860	1233.23817	-466.49759	-1281.84027	1271.26041	-539.16996	-1072.39787	1237.56419	-686.98310	-1280.65917	1272.46701	-621.89456	-1153.72360	1710.77398	-569.15283	-1096.50698	1670.33835	-426.41713	-1108.31311	1674.88112	-712.24361	-1038.03286	1634.64416	-549.62865	-1040.05156	1631.65009	-588.61840	-1076.10069	1552.41833	-371.47796	-1185.76270	1357.53720	-354.91463	-1134.07153	1362.09094	-312.43269	-1068.90446	1294.25272	-329.52750	-1019.05643	1163.33868	-361.44959	-1035.61657	1151.91331	-330.01368	-1108.54879	1574.83070	-786.46225	-1189.81930	1362.58546	-801.62610	-1147.55680	1382.95264	-849.87163	-1074.56396	1301.87124	-838.66197	-1020.09061	1190.70163	-808.06087	-1039.11663	1177.59395	-839.11817	-1158.25568	1149.07760	-474.38960	-1157.36488	1155.22228	-681.80416	-1146.60959	1168.86163	-498.68101	-1144.53176	1170.98414	-644.19905	
